<svg xmlns="http://www.w3.org/2000/svg" xmlns:xlink="http://www.w3.org/1999/xlink" viewBox="0 0 173.828 35.531">
  <defs>
    <style>
      .cls-1 {
        opacity: 0.091;
      }

      .cls-2 {
        clip-path: url(#clip-path);
      }
    </style>
    <clipPath id="clip-path">
      <rect id="Rectangle_42" data-name="Rectangle 42" width="173.828" height="35.531" transform="translate(0 0)"/>
    </clipPath>
  </defs>
  <g id="Group_602" data-name="Group 602" class="cls-1" transform="translate(-189.3 -50.5)">
    <g id="Group_23" data-name="Group 23" class="cls-2" transform="translate(189.3 50.5)">
      <rect id="Rectangle_21" data-name="Rectangle 21" width="2.147" height="99.509" transform="translate(2.611 -18.078) rotate(45)"/>
      <rect id="Rectangle_22" data-name="Rectangle 22" width="2.147" height="99.509" transform="translate(14.489 -18.073) rotate(45)"/>
      <rect id="Rectangle_23" data-name="Rectangle 23" width="2.147" height="99.509" transform="translate(26.366 -18.068) rotate(45)"/>
      <rect id="Rectangle_24" data-name="Rectangle 24" width="2.147" height="99.509" transform="translate(38.243 -18.063) rotate(45)"/>
      <rect id="Rectangle_25" data-name="Rectangle 25" width="2.147" height="99.509" transform="translate(50.121 -18.058) rotate(45)"/>
      <rect id="Rectangle_26" data-name="Rectangle 26" width="2.147" height="99.509" transform="translate(61.973 -18.078) rotate(45)"/>
      <rect id="Rectangle_27" data-name="Rectangle 27" width="2.147" height="99.509" transform="translate(73.85 -18.073) rotate(45)"/>
      <rect id="Rectangle_28" data-name="Rectangle 28" width="2.147" height="99.509" transform="translate(85.727 -18.068) rotate(45)"/>
      <rect id="Rectangle_29" data-name="Rectangle 29" width="2.147" height="99.509" transform="translate(97.604 -18.063) rotate(45)"/>
      <rect id="Rectangle_30" data-name="Rectangle 30" width="2.147" height="99.509" transform="translate(109.457 -18.083) rotate(45)"/>
      <rect id="Rectangle_31" data-name="Rectangle 31" width="2.147" height="99.509" transform="translate(121.334 -18.078) rotate(45)"/>
      <rect id="Rectangle_32" data-name="Rectangle 32" width="2.147" height="99.509" transform="translate(133.211 -18.073) rotate(45)"/>
      <rect id="Rectangle_33" data-name="Rectangle 33" width="2.147" height="99.509" transform="translate(145.088 -18.068) rotate(45)"/>
      <rect id="Rectangle_34" data-name="Rectangle 34" width="2.147" height="99.509" transform="translate(156.966 -18.063) rotate(45)"/>
      <rect id="Rectangle_35" data-name="Rectangle 35" width="2.147" height="99.509" transform="translate(168.818 -18.083) rotate(45)"/>
      <rect id="Rectangle_36" data-name="Rectangle 36" width="2.147" height="99.509" transform="translate(180.695 -18.078) rotate(45)"/>
      <rect id="Rectangle_37" data-name="Rectangle 37" width="2.147" height="99.509" transform="translate(192.572 -18.073) rotate(45)"/>
      <rect id="Rectangle_38" data-name="Rectangle 38" width="2.147" height="99.509" transform="translate(204.45 -18.068) rotate(45)"/>
      <rect id="Rectangle_39" data-name="Rectangle 39" width="2.147" height="99.509" transform="translate(216.327 -18.063) rotate(45)"/>
      <rect id="Rectangle_40" data-name="Rectangle 40" width="2.147" height="99.509" transform="translate(228.179 -18.083) rotate(45)"/>
      <rect id="Rectangle_41" data-name="Rectangle 41" width="2.147" height="99.509" transform="translate(240.056 -18.078) rotate(45)"/>
    </g>
  </g>
</svg>
